# xmcd
# Track frame offsets:
# 150
# 14400
# 31342
# 46827
# 58007
# 72900
# 88477
# 101357
# 117652
# 133225
# 147577
# 166195
# 182420
# 201225
#
# Disc length: 2833 seconds
# Revision: 1
# Processed by: cddbd v1.5.2PL0 Copyright (c) Steve Scherf et al.
# Submitted via: VisiTrax 2.11.2.271 - For more info visit www.synapsa.com
#
DISCID=cd0b0f0e
DTITLE=Slim Dusty - Cattlemen From The High Plains And Other Places
DYEAR=1985
DGENRE=Australian Country
TTITLE0=Cattlemen From The High Plains
TTITLE1=Innamincka Muster
TTITLE2=Axe Mark On A Gidgee
TTITLE3=Big Gulf Rivers
TTITLE4=A Land He Calls His Own
TTITLE5=The Mad Cook
TTITLE6=The Bush Has Had Enough
TTITLE7=That's My Kind Of Brand
TTITLE8=The Annual Rodeo Show
TTITLE9=Keeroongooloo Station
TTITLE10=When The Bitumen Reaches Pooncarie
TTITLE11=Bullock Dung Narration
TTITLE12=King Alligator
TTITLE13=Baking A Brownie
EXTD=
EXTT0=
EXTT1=
EXTT2=
EXTT3=
EXTT4=
EXTT5=
EXTT6=
EXTT7=
EXTT8=
EXTT9=
EXTT10=
EXTT11=
EXTT12=
EXTT13=
PLAYORDER=
